<?xml version="1.0" encoding="UTF-8"?>
<!DOCTYPE svg PUBLIC "-//W3C//DTD SVG 1.1//EN" "http://www.w3.org/Graphics/SVG/1.1/DTD/svg11.dtd">
<!-- Creator: CorelDRAW X7 -->
<svg xmlns="http://www.w3.org/2000/svg" xml:space="preserve" width="43.4493mm" height="43.4493mm" version="1.1" style="shape-rendering:geometricPrecision; text-rendering:geometricPrecision; image-rendering:optimizeQuality; fill-rule:evenodd; clip-rule:evenodd"
viewBox="0 0 579 579"
 xmlns:xlink="http://www.w3.org/1999/xlink">
 <defs>
  <style type="text/css">
   <![CDATA[
    .fil0 {fill:#7A75B5}
   ]]>
  </style>
 </defs>
 <g id="Capa_x0020_1">
  <metadata id="CorelCorpID_0Corel-Layer"/>
  <path class="fil0" d="M299 0l-251 449c-30,-46 -48,-101 -48,-159 0,-160 130,-290 290,-290 3,0 6,0 9,0zm-9 579c-70,0 -134,-24 -184,-65l29 -53 280 0 13 83c-41,22 -88,35 -138,35zm149 -538c84,51 140,143 140,249 0,72 -26,138 -70,188l-70 -437zm-84 13l-1 0 -180 336 231 0 -50 -336 0 0z"/>
 </g>
</svg>
